<svg height='100px' width='100px'  fill="#1A1A1A" xmlns:x="http://ns.adobe.com/Extensibility/1.0/" xmlns:i="http://ns.adobe.com/AdobeIllustrator/10.0/" xmlns:graph="http://ns.adobe.com/Graphs/1.0/" xmlns="http://www.w3.org/2000/svg" xmlns:xlink="http://www.w3.org/1999/xlink" version="1.1" x="0px" y="0px" viewBox="0 0 100 100" style="enable-background:new 0 0 100 100;" xml:space="preserve"><g><g i:extraneous="self"><path d="M91.7,52.9c-0.4-6.3-7.3-9.9-12.8-6.7l0,0c-2.7,1.6-4.3,4.6-4.1,7.7c0.1,1.8,0.1,3.6-0.2,5.4C73,70.8,63.4,79.8,51.7,80.5    c-14.8,1-27.1-11-26.6-25.7c0.4-12.6,10.5-23.1,23.1-23.9c0,0,0.1,0,0.1,0v6.3c0,4,4.4,6.4,7.8,4.3l23.7-14.8c3.2-2,3.2-6.6,0-8.6    L56.1,3.3c-3.4-2.1-7.8,0.3-7.8,4.3V14c-20.8,0.8-38.1,17.2-40,37.9C6.1,78,27.8,99.7,53.8,97.3C74.3,95.5,90.6,78.6,91.7,58    C91.8,56.3,91.8,54.6,91.7,52.9z"></path></g></g></svg>