<svg height='100px' width='100px'  fill="#FFFFFF" xmlns="http://www.w3.org/2000/svg" xmlns:xlink="http://www.w3.org/1999/xlink" version="1.0" x="0px" y="0px" viewBox="0 0 100 100" enable-background="new 0 0 100 100" xml:space="preserve"><path d="M73.9130859,47.7636719c-0.394043-1.2143555-1.5186157-2.4368896-3.5214844-2.8464355  c0.057312-0.1607056,0.111145-0.3181152,0.1611328-0.467041c0.0634766-0.1884766,0.1240234-0.3701172,0.1875-0.5371094  c0.7177734-1.8867188,1.2480469-3.9707031,1.5771484-6.1923828c0.3261719-2.1806641,0.1054688-4.2714844-0.1494141-6.2255859  c-0.0966797-0.75-0.2607422-1.7207031-0.5263672-2.6748047c0.0517578-0.0185547,0.1035156-0.0410156,0.1533203-0.0683594  c0.3388672-0.1865234,0.5400391-0.5517578,0.515625-0.9375c-0.1630859-2.6220703-2.7539063-5.9492188-4.5625-7.3427734  c-1.6816406-1.296875-3.5146484-1.9951172-5.0859375-2.5068359c-0.2382813-0.078125-0.4794922-0.1425781-0.7119141-0.203125  c-0.2861328-0.0751953-0.7177734-0.1894531-0.7763672-0.1992188c0-0.0009766-0.015625-0.1005859,0.0683594-0.3623047  c0.1396484-0.4375,0.3847656-0.8652344,0.6445313-1.3183594c0.4765625-0.8291016,1.015625-1.7675781,1.015625-2.9951172  c0-0.2998047-0.1347656-0.5839844-0.3662109-0.7734375c-0.2324219-0.1894531-0.5390625-0.265625-0.8310547-0.2070313  c-1.5244141,0.3076172-2.7949219,1.5146484-3.6972656,2.8320313c-0.1630859-0.7509766-0.2724609-1.4746094-0.2148438-2.171875  c0.0351563-0.4326172-0.2128906-0.8388672-0.6142578-1.0048828c-0.3994141-0.1669922-0.8642578-0.0546875-1.1455078,0.2773438  c-0.8818359,1.0390625-1.0849609,2.1484375-1.1142578,3.2021484c-6.5478516-3.2460938-17.6640625,1.2626953-22.6669922,4.78125  c-3.359375,2.3623047-6.7285156,7.4970703-6.3134766,11.6728516c0.0341797,0.3398438,0.2363281,0.6337891,0.5322266,0.7880859  c-0.0185547,0.3134766-0.0214844,0.6210938-0.0253906,0.9179688l-0.0058594,0.3896484  c-0.0087891,0.4472656,0.2802734,0.8476563,0.7099609,0.9775391c0.0615234,0.0185547,0.1240234,0.03125,0.1865234,0.0380859  c0.0136719,0.5791016,0.0507813,1.2705078,0.1123047,2.0986328c0.2144165,2.8658447,1.2529907,5.6365356,2.4171143,8.206665  c-2.0269775,0.4020996-3.1592407,1.6297607-3.5548096,2.8519287c-0.5205078,1.6074219-0.0400391,3.9785156,2.8671875,5.8095703  c1.3701172,0.8710938,2.78125,0.7089844,3.625,0.6142578c0.0986328-0.0117188,0.2167969-0.0244141,0.3173828-0.0332031  c2.3105469,3.2451172,4.1855469,4.4873047,6.0595703,5.5654297c2.9082031,1.6757813,6.1044922,2.1894531,7.5996094,2.3447266  c0.0041504,0.1443481,0.0060425,0.3256226,0.0048828,0.5435791c-1.5106812,0.1618042-3.0114746,0.4382324-4.4821777,0.8249512  c-0.0400391-0.0285034-0.0748901-0.0631104-0.118042-0.085144c-0.0669556-0.0346069-0.1395264-0.0491943-0.2127075-0.0679932  c-0.050415-0.0126953-0.0975952-0.032959-0.149292-0.0377197c-0.0673828-0.0063477-0.1342773,0.0070801-0.2029419,0.0150146  c-0.0638428,0.0070801-0.1262817,0.0092163-0.1884155,0.0287476c-0.0132446,0.0042725-0.0267944,0.0012207-0.039978,0.0061035  c-4.9052734,1.7675781-6.8056641,4.0478516-9.1523438,7.3378906c-1.6025391,2.3173828-2.1376953,6.3925781-2.3037109,9.4042969  c-0.1445313,2.6328125,0.0205078,5.6425781,0.2353516,7.3310547c0.1220703,0.9238281,0.7773438,1.1337891,2.6523438,1.1337891  c0.6181641,0,1.3691406-0.0234375,2.2773438-0.0507813c1.15625-0.0351563,2.5029297-0.0712891,3.8964844-0.0742188  l2.3847656,0.0068359c3.03125,0.0097656,7.1796875,0.0234375,8.8955078-0.0068359l3.4365234,0.0195313  c0.8867188,0,1.5390625-0.0029297,2.3857422-0.0058594c1.0439453-0.0048828,2.3828125-0.0107422,4.8242188-0.0136719  c0.9511719,0,1.8876953,0.0068359,2.7626953,0.015625c4.9521484,0.0449219,6.1328125,0.0585938,6.2939453-1.2128906  c0.1845703-1.4638672,0.1865234-3.8671875,0.0058594-7.1425781c-0.1640625-3.0068359-0.6982422-7.0800781-2.3115234-9.4169922  c-2.3427734-3.2783203-4.2441406-5.5595703-9.1435547-7.3251953c-0.0132446-0.0048828-0.0268555-0.0018921-0.0402222-0.0061646  c-0.0671387-0.0211792-0.1342773-0.024353-0.2033081-0.0310059c-0.0631104-0.0062866-0.1246338-0.0187988-0.1866455-0.0130005  c-0.0585327,0.0053711-0.1120605,0.0270386-0.1688843,0.0426636c-0.0667725,0.0184937-0.1331177,0.0317383-0.194519,0.0635376  c-0.0360718,0.0185547-0.06604,0.0457153-0.0999756,0.0687866c-1.3764038-0.3594971-2.7815552-0.6220703-4.1976929-0.7843628  c-0.0018311-0.2290649-0.0004883-0.4151611,0.0023804-0.5621338c1.6074219-0.1474609,5.1699219-0.6572266,8.1367188-2.3642578  c1.7558594-1.0107422,3.1728516-2.2089844,5.5273438-5.5517578c0.1005859,0.0087891,0.21875,0.0214844,0.3164063,0.0332031  c0.84375,0.0957031,2.2539063,0.2587891,3.6201172-0.6113281C73.953125,51.7431641,74.4335938,49.3720703,73.9130859,47.7636719z   M46.6159058,68.8125h6.7282715l-3.3480835,4.2851563L46.6159058,68.8125z M69.9716797,51.8857422  c-0.7724609,0.4912109-1.5957031,0.3964844-2.3232422,0.3144531c-0.6640625-0.0761719-1.5-0.171875-1.9892578,0.5322266  c-2.2568359,3.2470703-3.5263672,4.3466797-5.0791016,5.2402344c-3.4404297,1.9804688-8.0126953,2.15625-8.0585938,2.1582031  c-0.3720703,0.0117188-0.7070313,0.2304688-0.8681641,0.5654297c-0.1435547,0.2988281-0.2666016,0.7441406-0.1933594,2.8828125  c0.00177,0.0549316,0.0255127,0.1018066,0.0357666,0.1539917c0.0105591,0.050293,0.0163574,0.1000977,0.0342407,0.147522  c0.0328369,0.0910034,0.0809937,0.1697388,0.137207,0.2460938c0.0157471,0.0209961,0.0272827,0.0436401,0.0446777,0.0632935  c0.0761108,0.0880737,0.1657715,0.1582031,0.2678223,0.2153931c0.006958,0.0037842,0.0125122,0.0090942,0.0195313,0.0127563  c0.1395874,0.0739136,0.2909546,0.12677,0.4588013,0.12677c0.0117188,0,0.0234375,0,0.0351563-0.0009766  c0.0039063-0.0001221,0.007019-0.0023804,0.0109253-0.0025635c1.2508545,0.1112671,2.4962158,0.307312,3.7208252,0.5840454  L54.9067993,66.8125H45.038269l-1.321106-1.6748047c1.3016968-0.2969971,2.6248779-0.5001831,3.9519043-0.6102905  c0.0215454,0.0021362,0.0394897,0.013855,0.0614014,0.0145874c0.0117188,0.0009766,0.0234375,0.0009766,0.0351563,0.0009766  c0.4367065,0,0.7988892-0.288269,0.9328003-0.6849365c0.0134277-0.0360107,0.0167847-0.0742188,0.026001-0.1119995  c0.012085-0.0569458,0.0372925-0.1087036,0.0392456-0.1688843c0.0732422-2.1328125-0.0556641-2.5927734-0.1943359-2.8808594  c-0.1611328-0.3349609-0.4960938-0.5527344-0.8671875-0.5654297c-0.0410156-0.0019531-4.0888672-0.1650391-7.5244141-2.1435547  c-1.7880859-1.0292969-3.4443359-2.1357422-5.6123047-5.2548828c-0.4873047-0.7021484-1.3203125-0.609375-1.9892578-0.5322266  c-0.7285156,0.0830078-1.5527344,0.1757813-2.3291016-0.3164063c-1.5986328-1.0078125-2.3964844-2.3828125-2.0332031-3.5039063  c0.2878418-0.8886108,1.234436-1.4533081,2.5375977-1.5794067c0.1153564,0.2399902,0.2313843,0.4825439,0.3452148,0.7180786  l0.2470703,0.5107422c0.1669922,0.3476563,0.5185547,0.5654297,0.9003906,0.5654297  c0.0234375,0,0.046875-0.0009766,0.0703125-0.0029297c0.4082031-0.0283203,0.7578125-0.3027344,0.8828125-0.6933594  c0.4716797-1.4804688,0.6376953-2.9423828,0.7988281-4.3564453c0.0361328-0.3193359,0.0722656-0.640625,0.1123047-0.9658203  c0.171875-1.3925781,0.5371094-2.9003906,0.890625-4.3574219l0.171875-0.7138672  c0.0244141-0.1044922,0.0498047-0.2099609,0.0751953-0.3164063c0.0302734-0.0146484,0.0615234-0.03125,0.0917969-0.0488281  c0.5595703-0.3310547,1.1132813-0.6191406,1.6582031-0.9033203c1.2382813-0.6445313,2.515625-1.3095703,3.7226563-2.3974609  c0.1552734,0.3808594,0.5693359,0.6503906,0.96875,0.6230469c8.0664063-0.3417969,13.2275391-3.1611328,15.3681641-5.6855469  c0.1972656-0.2333984,0.375-0.4677734,0.5341797-0.7050781l0.5361328,1.4707031  c0.015625,0.0429688,0.0400391,0.0947266,0.0615234,0.1357422c0.8251953,1.5566406,2.9921875,5.2636719,5.2705078,6.0546875  c0.3476563,0.1191406,0.7119141,0.0996094,1.0214844-0.0634766c0.0400391-0.0205078,0.0771484-0.0419922,0.1132813-0.0654297  c0.0292969,0.1835938,0.0595703,0.3740234,0.0927734,0.5712891c0.0732422,0.4492188,0.1357422,0.8203125,0.1552734,1.0302734  c0.0087891,0.0908203,1.7324219,9.6611328,2.5595703,10.1884766c0.2607422,0.1650391,0.5859375,0.2021484,0.8779297,0.0986328  c0.4364624-0.156189,0.7774048-0.4080811,1.0616455-0.7045288c1.3756104,0.0977173,2.3721313,0.6723633,2.6697998,1.5922241  C72.3730469,49.5019531,71.5751953,50.8769531,69.9716797,51.8857422z"></path></svg>