<svg height='100px' width='100px'  fill="#FFFFFF" xmlns="http://www.w3.org/2000/svg" xmlns:xlink="http://www.w3.org/1999/xlink" version="1.1" x="0px" y="0px" viewBox="0 0 100 100" style="enable-background:new 0 0 100 100;" xml:space="preserve"><style type="text/css">
	.st0{fill-rule:evenodd;clip-rule:evenodd;}
	.st1{fill:#FFFFFF;}
</style><path d="M76.3,14.9v68.3H23.7V14.9H76.3 M82.3,8.9H17.7v80.3h64.6V8.9L82.3,8.9z"></path><path d="M37.2,71.2c-3.5,0-6.3-1.9-6.9-4.7c-0.3-1.6,0.2-3.3,1.4-4.7c1.2-1.4,3-2.4,5-2.8c0.6-0.1,1.2-0.2,1.8-0.2  c1.1,0,2.1,0.2,3,0.5V37.7l24.2-9.3v30.3L65.7,59c-0.3,2.8-2.9,5.2-6.4,5.9c-0.6,0.1-1.3,0.2-1.9,0.2c-3.5,0-6.3-1.9-6.9-4.7  c-0.3-1.6,0.2-3.3,1.4-4.7c1.2-1.4,3-2.4,5-2.8c0.6-0.1,1.2-0.2,1.8-0.2c1.1,0,2.1,0.2,3,0.5V39.4l-16.2,6.2v18l0,0.8  c0,3-2.8,5.8-6.4,6.5C38.5,71.1,37.8,71.2,37.2,71.2z"></path></svg>