<svg height='100px' width='100px'  fill="#1A1A1A" xmlns:x="http://ns.adobe.com/Extensibility/1.0/" xmlns:i="http://ns.adobe.com/AdobeIllustrator/10.0/" xmlns:graph="http://ns.adobe.com/Graphs/1.0/" xmlns="http://www.w3.org/2000/svg" xmlns:xlink="http://www.w3.org/1999/xlink" version="1.1" x="0px" y="0px" viewBox="0 0 100 100" style="enable-background:new 0 0 100 100;" xml:space="preserve"><g><g i:extraneous="self"><g><path d="M50,2.5C23.8,2.5,2.5,23.8,2.5,50S23.8,97.5,50,97.5S97.5,76.2,97.5,50S76.2,2.5,50,2.5z M50,87.1     c-20.5,0-37.1-16.6-37.1-37.1S29.5,12.9,50,12.9S87.1,29.5,87.1,50S70.5,87.1,50,87.1z"></path><path d="M56.4,64.9h-1.3v-18c0-2.7-2.2-5-5-5h-6.3c-2.7,0-4.9,2.2-4.9,5c0,2.7,2.2,5,4.9,5h1.3v13h-1.3c-2.7,0-4.9,2.2-4.9,5     s2.2,5,4.9,5h12.6c2.7,0,5-2.2,5-5S59.1,64.9,56.4,64.9z"></path><circle cx="50.1" cy="30.9" r="6.7"></circle></g></g></g></svg>