<svg height='100px' width='100px'  fill="#FFFFFF" xmlns="http://www.w3.org/2000/svg" xmlns:xlink="http://www.w3.org/1999/xlink" version="1.1" x="0px" y="0px" viewBox="0 0 125.814 237.184" style="enable-background:new 0 0 125.814 237.184;" xml:space="preserve"><g><path d="M93.538,75.357l9.316,45.103v-12.58V74.863c0.594,1.215,1.191,2.611,1.781,4.24c2.818,7.811,5.189,20.629,5.18,40.637   c0.002,5.514-0.176,11.574-0.566,18.225c-0.258,4.408,3.109,8.193,7.522,8.453c0.158,0.01,0.314,0.014,0.471,0.014   c4.207,0,7.734-3.283,7.982-7.535c0.404-6.934,0.592-13.301,0.592-19.156c-0.039-30.182-4.861-46.887-11.434-56.93   c-3.285-4.986-7.127-8.184-10.678-9.955c-2.583-1.303-4.921-1.839-6.689-2.034L93.538,75.357z"></path><polygon points="89.015,74.021 92.317,50.699 59.296,50.699 62.599,74.021 75.533,74.021  "></polygon><path d="M48.762,224.82c0,6.83,5.537,12.363,12.363,12.363c6.828,0,12.365-5.533,12.365-12.363v-50.595   c-10.101-0.4-19.798-3.631-24.728-5.546V224.82z"></path><path d="M78.125,174.203v50.617c0,6.83,5.537,12.363,12.363,12.363c6.828,0,12.365-5.533,12.365-12.363v-56.356   C98.204,170.308,88.416,173.69,78.125,174.203z"></path><path d="M34.371,146.43c0.158,0,0.316-0.004,0.477-0.014c4.41-0.258,7.775-4.045,7.518-8.453c-0.059-1.001-0.104-1.963-0.152-2.938   l4.396-4.396l-4.139-4.139l-0.567,0.566c-0.065-2.531-0.104-4.983-0.104-7.316c-0.035-24.215,3.496-37.82,6.963-44.918v33.059   v9.923l9.043-43.782h0.082l-3.287-23.2c-1.771,0.195-4.106,0.731-6.689,2.034c-5.377,2.666-11.178,8.502-15.234,18.842   c-4.107,10.377-6.865,25.385-6.879,48.043c0,5.857,0.19,12.225,0.596,19.158c0.062,1.046,0.323,2.033,0.743,2.927l-4.38,4.38   l-11.629,11.629l4.139,4.141l11.686-11.686l4.437-4.437C32.313,146.225,33.321,146.43,34.371,146.43z"></path><path d="M79.466,44.699C90.152,42.951,98.307,33.681,98.307,22.5c0-12.426-10.072-22.5-22.5-22.5c-12.426,0-22.5,10.074-22.5,22.5   c0,11.181,8.155,20.451,18.841,22.199C73.339,44.894,74.56,45,75.807,45C77.054,45,78.274,44.894,79.466,44.699z"></path><rect x="3.31" y="165.699" transform="matrix(0.7071 -0.7071 0.7071 0.7071 -117.9284 52.554)" width="2.326" height="5.855"></rect><polygon points="6.01,154.641 0,160.65 10.43,171.08 16.563,174.318 19.678,171.203 16.441,165.07  "></polygon><circle cx="63.473" cy="82.592" r="3"></circle><circle cx="53.889" cy="160.424" r="3"></circle><circle cx="97.723" cy="160.424" r="3"></circle><circle cx="88.139" cy="82.592" r="3"></circle></g></svg>