<svg height='100px' width='100px'  fill="#FFFFFF" xmlns="http://www.w3.org/2000/svg" xmlns:xlink="http://www.w3.org/1999/xlink" version="1.1" x="0px" y="0px" viewBox="0 0 100 100" enable-background="new 0 0 100 100" xml:space="preserve"><path d="M13.96,45.693c0.208,0.312,0.544,0.514,0.917,0.551c0.373,0.036,0.742-0.095,1.007-0.36L26.25,35.518V95  c0,0.69,0.56,1.25,1.25,1.25h45c0.69,0,1.25-0.56,1.25-1.25V35.518l10.366,10.366c0.265,0.265,0.634,0.396,1.007,0.36  c0.373-0.037,0.709-0.239,0.917-0.551l10-15c0.302-0.453,0.276-1.049-0.063-1.474l-20-25C75.739,3.923,75.38,3.75,75,3.75H60  c-0.688,0-1.246,0.559-1.25,1.247C58.748,5.354,58.604,13.75,50,13.75S41.252,5.354,41.25,5c0-0.69-0.56-1.25-1.25-1.25H25  c-0.38,0-0.739,0.173-0.977,0.469l-20,25c-0.34,0.425-0.365,1.021-0.063,1.474L13.96,45.693z"></path></svg>