<svg height='100px' width='100px'  fill="#FFFFFF" xmlns="http://www.w3.org/2000/svg" xmlns:xlink="http://www.w3.org/1999/xlink" version="1.1" x="0px" y="0px" viewBox="0 0 90 90" enable-background="new 0 0 90 90" xml:space="preserve"><path d="M58.6,35.7l-5.8-6.4L47,24.7c-0.5-1.8-3.5-5.1-3.5-5.1C42,15.5,40,15.1,40,15.1l0.1,0.9c-0.1,0.8-0.3,2.6-0.5,4.5l-3.5-4.1  C35,12.9,34.4,15,34.4,15c-1.7,2,0.2,8.2,0.2,8.2l-0.6,0.7c-2.5,1.1-5.3,4.8-5.3,4.8l3-0.6l-5,6.5C17.7,46,12.4,47.8,12.4,47.8  c-1.8,1-0.8,5.1-0.8,5.1c-0.5,2.5,1.1,5,1.1,5l3.9,1.4c0,0,4-4.4,6.3-4.1l-6.3,4.1c4.5,2,7.5-2.8,7.5-2.8c0.9-0.6,5.8-0.5,5.8-0.5  l7.1-1.9c3.3,0.9,8.5-1.7,8.5-1.7l4.3,19.1l26.8-14.3L58.6,35.7z M16.4,54.5c0,0-1.8,1.7-2.9,0.1c0,0-0.3-6.3,2.6-5.6  C16.1,49,18.9,51.8,16.4,54.5z M37,37.3c0,0-1.6,0.5-2.7-1.7c0,0,1.8-3.3,4.5,0C38.8,35.6,38.1,37.2,37,37.3z"></path></svg>