<svg height='100px' width='100px'  fill="#FFFFFF" xmlns="http://www.w3.org/2000/svg" xmlns:xlink="http://www.w3.org/1999/xlink" version="1.1" x="0px" y="0px" viewBox="0 0 48 48" enable-background="new 0 0 48 48" xml:space="preserve"><g><path d="M47.903,5.725c-0.056-0.217-0.147-0.427-0.301-0.61l-3.79-4.557c-0.55-0.661-1.526-0.747-2.185-0.196   c-0.656,0.551-0.744,1.534-0.195,2.194l2.896,3.482l-1.707,1.467l-1.504-1.8c-0.552-0.659-1.529-0.745-2.186-0.19   c-0.656,0.553-0.74,1.536-0.19,2.194l1.522,1.822L26.86,21.048c-0.521-0.306-1.152-0.507-1.918-0.569   c-4.881-0.398-14.493,4.379-18.71,7.717C0.578,32.666-1.607,39.034,1.258,42.69c1.061,1.353,2.69,2.155,4.712,2.32   c3.237,0.265,7.154-1.146,10.479-3.777c3.643-2.883,11.929-12.164,11.913-17.378c0-0.001,0.002-0.001,0.004-0.003l19.1-16.41   C47.974,7.007,48.12,6.319,47.903,5.725z M9.497,40.571c-0.205,0.143-0.442,0.2-0.671,0.182c-0.298-0.024-0.584-0.178-0.767-0.445   l-2.761-4.014c-0.324-0.472-0.207-1.119,0.263-1.445c0.471-0.326,1.113-0.209,1.438,0.265l2.761,4.014   C10.083,39.599,9.966,40.246,9.497,40.571z"></path><path d="M17.729,42.864c-3.156,2.497-6.835,3.996-10.165,4.213c1.158,0.473,2.373,0.777,3.63,0.881c0.001,0,0.001,0,0.002,0   c5.077,0.414,10.476-2.272,14.09-7.014c2.822-3.703,4.179-8.074,3.987-12.541C26.444,34.751,19.254,41.657,17.729,42.864z"></path></g></svg>