<svg height='100px' width='100px'  fill="#FFFFFF" xmlns="http://www.w3.org/2000/svg" xmlns:xlink="http://www.w3.org/1999/xlink" version="1.1" x="0px" y="0px" viewBox="0 0 66 66" enable-background="new 0 0 66 66" xml:space="preserve"><g><path d="M16.3,29c1.8-2.7,4.2-4.8,7.1-6.3c0.9-8.9-1.6-16.4-10-19.5L11,2.3c-0.7-0.2-1.2,0.5-0.8,1.1c6.4,8.7,4.8,12.7,1.8,17.2   C9.5,24.5-4.8,35.4,3.4,50.5c4.2,7.7,14.8,9.6,16,9.7C10.5,55.5,10.6,37.5,16.3,29z"></path><path d="M57.2,28.4c-0.5,0-1,0.4-1,1c0,0.5,0.3,0.9,0.8,0.9c0,0,0,0,0,0c0-0.3,0.2-0.5,0.5-0.5c0.2,0,0.3,0.1,0.4,0.3   c0.2-0.2,0.3-0.4,0.3-0.7C58.2,28.9,57.8,28.4,57.2,28.4z"></path><path d="M63.8,42.8c0,0,2.5-1.4,0-1.5c0,0,2.2-1.7-0.9-1.3c-3.1,0.2-5,1.9-7.7,1.9c-0.8,0-1.6-0.3-2.3-0.8c-1.2-0.9-2.2-2-3-3.3   c-0.3-0.5-0.1-1.1,0.4-1.3c0.4-0.1,0.8-0.3,1.1-0.6c0.3-0.2,0.8-0.2,1.1,0.1c2.8,2.3,5.7,1.6,9.8,1.9c1.8,0.1,2.5-0.1,2.4-1.3   c-0.6-6.1-1.3-11.4-3.6-15.1c-0.7-1.1-1.5-2-2.4-2.7c0.1-3.4-0.2-9.5-2.9-13.1c0,0-1,1.9-2,4.6c-0.5-1.7-1.3-3.3-2.3-4.6   c0,0-2.8,6-2.6,11.5C46.3,18,44,20,43,21.3c-2,2.4-4.3,1.9-6.4,1.1c-1.7-0.7-3.5-1-5.3-0.8c-14,1.3-21.1,15.1-16.2,31.4   c1.3,4.5,5.9,8.3,12.2,7c0.6,0.9,1.6,1.1,2.4,1.2c1,0.1,3.2,0.1,5,0.2c1.4,0,2.8,0.6,3.7,1.7c2,2.2,0.7-1.8,0.1-3.5   c-0.1-0.3,0.2-0.5,0.4-0.4c2.5,0.9,7.2,5.9,4.5,0.5c-0.2-0.3,0.2-0.7,0.5-0.4c2.3,1.8,2.5,0.9,2.3,0.1c-0.7-3.5-6.9-5.1-10.5-5.6   c1.5-2.8,1.6-5,1.7-7.3c-2-5.6-5.5-7.1-8.8-6.5l0,0c-0.2,0-0.4-0.1-0.5-0.3c0-0.2,0.1-0.4,0.3-0.5c3.7-0.7,7.7,0.9,9.9,6.8   c2.3,2,9.2,6.5,19.3,0.4c1.2-0.6,2.5-0.9,4-0.9c0.9,0,1.7-0.4,2.2-1c0.2-0.3,0.5-0.6,0.9-0.8C64.6,43.6,66.1,42.6,63.8,42.8z    M59.1,31c0,0.3-0.3,0.5-0.6,0.5c-0.9,0-1.7-0.2-2.4-0.9c-0.7-0.8-1.1-1.9-0.6-2.9c0.1-0.1,0.2-0.2,0.3-0.3   C57.1,26.9,59.1,27.9,59.1,31z"></path></g></svg>