<svg height='100px' width='100px'  fill="#FFFFFF" xmlns="http://www.w3.org/2000/svg" xmlns:xlink="http://www.w3.org/1999/xlink" xml:space="preserve" version="1.1" style="shape-rendering:geometricPrecision;text-rendering:geometricPrecision;image-rendering:optimizeQuality;" viewBox="0 0 704 707" x="0px" y="0px" fill-rule="evenodd" clip-rule="evenodd"><defs><style type="text/css">
   
    .fil0 {fill:#FFFFFF}
    .fil1 {fill:#FFFFFF}
   
  </style></defs><g><path class="fil0" d="M70 566c6,0 11,1 16,2l78 -98c-23,-25 -47,-49 -71,-73 11,-11 22,-22 33,-33 41,29 81,57 122,85 29,42 60,84 90,126 -13,12 -25,23 -37,34 -23,-24 -48,-46 -71,-69l-93 74c2,7 3,15 3,22 0,39 -31,71 -70,71 -39,0 -70,-32 -70,-71 0,-38 31,-70 70,-70z"></path></g><g><path class="fil1" d="M290 479c119,-103 238,-210 356,-321 18,-54 39,-104 58,-158 -53,17 -111,33 -164,51l-322 353c32,19 57,45 72,75z"></path></g></svg>