<svg height='100px' width='100px'  fill="#FFFFFF" xmlns="http://www.w3.org/2000/svg" xmlns:xlink="http://www.w3.org/1999/xlink" version="1.1" x="0px" y="0px" viewBox="0 0 100 100" style="enable-background:new 0 0 100 100;" xml:space="preserve"><path d="M61.5830078,60.2792969c-0.5527344,0-1,0.4477539-1,1v2.1689453h-2.1689453c-0.5527344,0-1,0.4477539-1,1s0.4472656,1,1,1  h2.1689453v2.168457c0,0.5522461,0.4472656,1,1,1s1-0.4477539,1-1v-2.168457h2.1689453c0.5527344,0,1-0.4477539,1-1  s-0.4472656-1-1-1h-2.1689453v-2.1689453C62.5830078,60.7270508,62.1357422,60.2792969,61.5830078,60.2792969z"></path><path d="M79.2822266,10c-0.5527344,0-1,0.4477539-1,1v2.1689453h-2.1689453c-0.5527344,0-1,0.4477539-1,1s0.4472656,1,1,1h2.1689453  v2.1689453c0,0.5522461,0.4472656,1,1,1s1-0.4477539,1-1v-2.1689453h2.1689453c0.5527344,0,1-0.4477539,1-1s-0.4472656-1-1-1  h-2.1689453V11C80.2822266,10.4477539,79.8349609,10,79.2822266,10z"></path><path d="M44.1904297,18.784668c0-0.5522461-0.4472656-1-1-1h-2.1689453v-2.1689453c0-0.5522461-0.4472656-1-1-1s-1,0.4477539-1,1  v2.1689453h-2.1689453c-0.5527344,0-1,0.4477539-1,1s0.4472656,1,1,1h2.1689453v2.1689453c0,0.5522461,0.4472656,1,1,1  s1-0.4477539,1-1V19.784668h2.1689453C43.7431641,19.784668,44.1904297,19.3369141,44.1904297,18.784668z"></path><path d="M20.5146484,28.9746094l1.2080078-2.2392578c1.1152344-2.0664062,2.7822266-3.7553711,4.8203125-4.8857422  l2.2099609-1.2250977c0.3183594-0.1762695,0.515625-0.5112305,0.515625-0.8745117s-0.1972656-0.6982422-0.515625-0.8745117  l-2.2099609-1.2250977c-2.0380859-1.1303711-3.7050781-2.8193359-4.8203125-4.8852539l-1.2080078-2.2397461  C20.3408203,10.2016602,20.0029297,10,19.6347656,10c-0.3671875,0-0.7050781,0.2016602-0.8798828,0.5249023l-1.2089844,2.2397461  c-1.1152344,2.0664062-2.7822266,3.7553711-4.8203125,4.8857422l-2.2099609,1.2250977C10.1972656,19.0517578,10,19.3867188,10,19.75  s0.1972656,0.6982422,0.515625,0.8745117l2.2099609,1.2250977c2.0380859,1.1303711,3.7050781,2.8193359,4.8203125,4.8857422  l1.2089844,2.2397461C18.9296875,29.2983398,19.2675781,29.5,19.6347656,29.5  C20.0029297,29.5,20.3408203,29.2983398,20.5146484,28.9746094z M19.6347656,26.394043l-0.3291016-0.6088867  c-1.296875-2.402832-3.2373047-4.3686523-5.6113281-5.6845703L13.0625,19.75l0.6318359-0.3505859  c2.3740234-1.315918,4.3144531-3.2817383,5.6113281-5.6845703l0.3291016-0.6088867l0.328125,0.6088867  c1.296875,2.402832,3.2373047,4.3686523,5.6113281,5.6845703L26.2060547,19.75l-0.6318359,0.3505859  c-2.3740234,1.315918-4.3144531,3.2817383-5.6113281,5.6850586L19.6347656,26.394043z"></path><path d="M89.484375,76.2685547l-2.9951172-1.659668c-2.8212891-1.5644531-5.1279297-3.9023438-6.6708984-6.762207  l-1.6386719-3.0351562c-0.3496094-0.6464844-1.4101562-0.6464844-1.7597656,0l-1.6376953,3.0356445  c-1.5429688,2.859375-3.8496094,5.1972656-6.6708984,6.7617188l-2.9951172,1.659668  c-0.3183594,0.1757812-0.515625,0.5107422-0.515625,0.8745117c0,0.3632812,0.1972656,0.6982422,0.515625,0.8745117  l2.9951172,1.6601562c2.8212891,1.5644531,5.1279297,3.9023438,6.6708984,6.762207l1.6376953,3.0351562  C76.5947266,89.7983398,76.9326172,90,77.2998047,90s0.7050781-0.2016602,0.8798828-0.5249023l1.6386719-3.0356445  c1.5429688-2.859375,3.8496094-5.1972656,6.6708984-6.7617188l2.9951172-1.6601562  C89.8027344,77.8413086,90,77.5063477,90,77.1430664C90,76.7792969,89.8027344,76.4443359,89.484375,76.2685547z   M85.5205078,77.9287109c-3.1572266,1.75-5.7373047,4.3647461-7.4619141,7.5610352l-0.7587891,1.4047852l-0.7578125-1.4042969  c-1.7246094-3.1967773-4.3046875-5.8115234-7.4619141-7.5615234l-1.4169922-0.7856445l1.4169922-0.7851562  c3.1572266-1.75,5.7373047-4.3647461,7.4619141-7.5610352l0.7578125-1.4047852l0.7587891,1.4042969  c1.7246094,3.1967773,4.3046875,5.8115234,7.4619141,7.5615234L86.9375,77.1430664L85.5205078,77.9287109z"></path><path d="M20.2001953,41.4672852l2.6611328,1.4750977c2.4873047,1.3793945,4.5224609,3.4418945,5.8847656,5.9638672  l1.4550781,2.6972656c0.1738281,0.3237305,0.5117188,0.5253906,0.8798828,0.5253906  c0.3671875,0,0.7050781-0.2016602,0.8798828-0.5249023l1.4560547-2.6977539  c1.3613281-2.5219727,3.3964844-4.5844727,5.8847656-5.9638672l2.6611328-1.4750977  c0.3183594-0.1762695,0.515625-0.5112305,0.515625-0.8745117s-0.1972656-0.6982422-0.515625-0.8745117l-2.6611328-1.4750977  c-2.4882812-1.3793945-4.5234375-3.4418945-5.8847656-5.9648438l-1.4560547-2.6972656  c-0.3496094-0.6474609-1.4121094-0.6459961-1.7597656,0.0004883l-1.4550781,2.6967773  c-1.3623047,2.5229492-3.3974609,4.5854492-5.8847656,5.9648438l-2.6611328,1.4750977  c-0.3183594,0.1762695-0.515625,0.5112305-0.515625,0.8745117S19.8818359,41.2910156,20.2001953,41.4672852z M23.8300781,39.9921875  c2.8232422-1.5649414,5.1318359-3.9038086,6.6757812-6.7641602l0.5751953-1.0664062l0.5761719,1.0664062  c1.5429688,2.8603516,3.8515625,5.1992188,6.6757812,6.7641602l1.0830078,0.6005859l-1.0830078,0.6005859  c-2.8242188,1.5649414-5.1328125,3.9038086-6.6757812,6.7631836l-0.5761719,1.0668945l-0.5751953-1.0668945  c-1.5439453-2.859375-3.8525391-5.1982422-6.6757812-6.7631836l-1.0830078-0.6005859L23.8300781,39.9921875z"></path><path d="M89.9844971,36.3517456c-0.0059814-0.078125-0.0216064-0.1530151-0.0462036-0.2289429  c-0.0154419-0.0472412-0.0303345-0.0921021-0.0523071-0.1359863c-0.0115967-0.0233765-0.0140381-0.0490723-0.0275879-0.0717773  l-4.1689453-6.965332c-2.5751953-4.3037109-7.2910156-6.9775391-12.3076172-6.9775391H62.4511719  c-5.0166016,0-9.7324219,2.6738281-12.3076172,6.9775391l-4.1689453,6.965332  c-0.0136108,0.0227661-0.0160522,0.0485229-0.0276489,0.0719604c-0.0219116,0.0437622-0.0367432,0.0884399-0.0521851,0.1355591  c-0.0247192,0.0759888-0.0402832,0.151001-0.0462646,0.229248c-0.0021362,0.0267334-0.0155029,0.0496216-0.0155029,0.0769043  c0,0.0206909,0.0105591,0.0379028,0.0117798,0.0582275c0.0049438,0.0831909,0.0233765,0.1622314,0.0487671,0.2418823  c0.0126953,0.0396729,0.0197144,0.0800781,0.0371094,0.1174316c0.0354004,0.0767212,0.0871582,0.1443481,0.142334,0.2113037  c0.0233765,0.0281982,0.0390625,0.0612793,0.0653076,0.086731c0.0041504,0.0040283,0.0059204,0.0094604,0.0101318,0.0134277  l21.0839844,19.784668c0.0153809,0.0144043,0.0354614,0.0192261,0.0514526,0.0324707  c0.0646973,0.053772,0.1347046,0.0970459,0.2108765,0.1330566c0.0305786,0.0144043,0.0585327,0.0322266,0.0901489,0.043396  c0.1054688,0.0374756,0.2160034,0.0620728,0.3320923,0.0620728s0.2266235-0.0245972,0.3320923-0.0620728  c0.0316162-0.0111694,0.0595703-0.0289917,0.0901489-0.043396c0.0761719-0.0360107,0.1461792-0.0792847,0.2108765-0.1330566  c0.0159912-0.0132446,0.0360718-0.0180664,0.0514526-0.0324707l21.0830078-19.784668  c0.0042114-0.0039673,0.0059204-0.0093994,0.0100708-0.0134277c0.0263062-0.0255127,0.0421143-0.0586548,0.0654907-0.0869141  c0.0551147-0.0668335,0.1068115-0.1343384,0.1421509-0.2109375c0.017395-0.0375366,0.0245361-0.078125,0.0372925-0.117981  c0.0252686-0.0795288,0.0437012-0.1583862,0.048645-0.2414551C89.9894409,36.4666138,90,36.4494019,90,36.4287109  C90,36.4014282,89.9866333,36.378479,89.9844971,36.3517456z M59.3513794,37.4287109l5.9723511,14.9797363L49.3596191,37.4287109  H59.3513794z M74.3289185,37.4287109l-6.4119263,16.0844727l-6.4128418-16.0844727H74.3289185z M61.8345947,35.4287109  l6.0823975-10.3295898l6.0814819,10.3295898H61.8345947z M76.4816284,37.4287109h9.9918213L70.5100098,52.4085083  L76.4816284,37.4287109z M83.9726562,29.9770508l3.2636108,5.4516602H76.3188477l-6.7450562-11.456543h3.8080444  C77.6982422,23.972168,81.7568359,26.2729492,83.9726562,29.9770508z M51.8603516,29.9770508  c2.2158203-3.7041016,6.2744141-6.0048828,10.5908203-6.0048828h3.80896l-6.7459717,11.456543H48.5967407L51.8603516,29.9770508z"></path><path d="M10.0605469,70.414856c0.0126953,0.0396729,0.0197144,0.0800781,0.0371094,0.1174316  c0.0354004,0.0767212,0.0871582,0.1443481,0.142334,0.2113037c0.0233765,0.0281982,0.0390625,0.0612793,0.0653076,0.086731  c0.0041504,0.0040283,0.0059204,0.0094604,0.0101318,0.0134277l20.125,18.8852539  c0.0153809,0.0144043,0.0354614,0.0192261,0.0514526,0.0324707c0.0646973,0.053772,0.1347046,0.0970459,0.2108765,0.1330566  c0.0305786,0.0144043,0.0585327,0.0322266,0.0901489,0.043396C30.8983765,89.9754028,31.0089111,90,31.125,90  s0.2266235-0.0245972,0.3320923-0.0620728c0.0316162-0.0111694,0.0595703-0.0289917,0.0901489-0.043396  c0.0761719-0.0360107,0.1461792-0.0792847,0.2108765-0.1330566c0.0159912-0.0132446,0.0360718-0.0180664,0.0514526-0.0324707  l20.125-18.8852539c0.0042114-0.0039673,0.0059204-0.0093994,0.0100708-0.0134277  c0.0263062-0.0255127,0.0421143-0.0586548,0.0654907-0.0869141c0.0551147-0.0668335,0.1068115-0.1343384,0.1421509-0.2109375  c0.017395-0.0375366,0.0245361-0.078125,0.0372925-0.117981c0.0252686-0.0795288,0.0437012-0.1583862,0.048645-0.2414551  C52.2394409,70.1526489,52.25,70.135437,52.25,70.1147461c0-0.0272827-0.0133667-0.0502319-0.0155029-0.0769653  c-0.0059814-0.078125-0.0216064-0.1530151-0.0462036-0.2289429c-0.0154419-0.0472412-0.0303345-0.0921021-0.0523071-0.1359863  c-0.0115967-0.0233765-0.0140381-0.0490723-0.0275879-0.0717773l-3.8027344-6.3540039  c-2.5751953-4.3037109-7.2919922-6.9775391-12.3076172-6.9775391h-9.7460938c-5.015625,0-9.7324219,2.6738281-12.3076172,6.9775391  l-3.8027344,6.3540039c-0.0136108,0.0227661-0.0160522,0.0485229-0.0276489,0.0719604  c-0.0219116,0.0437622-0.0367432,0.0884399-0.0521851,0.1355591c-0.0247192,0.0759888-0.0402832,0.151001-0.0462646,0.229248  C10.0133667,70.0645752,10,70.0874634,10,70.1147461c0,0.0206909,0.0105591,0.0379028,0.0117798,0.0582275  C10.0167236,70.2561646,10.0351562,70.3352051,10.0605469,70.414856z M22.9189453,71.1147461l5.6130981,14.0805054  L13.5266113,71.1147461H22.9189453z M48.7233887,71.1147461L33.7179565,85.1952515l5.6130981-14.0805054H48.7233887z   M37.1782837,71.1147461L31.125,86.2993164l-6.0532837-15.1845703H37.1782837z M25.399231,69.1147461L31.125,59.3901367  l5.725769,9.7246094H25.399231z M46.5888672,64.2744141l2.8974609,4.840332H39.1712036l-6.385376-10.8452148h3.2122192  C40.3144531,58.2695312,44.3730469,60.5703125,46.5888672,64.2744141z M15.6611328,64.2744141  c2.2158203-3.7041016,6.2744141-6.0048828,10.5908203-6.0048828h3.2122192l-6.385376,10.8452148H12.7636719L15.6611328,64.2744141z"></path></svg>