<svg height='100px' width='100px'  fill="#FFFFFF" xmlns="http://www.w3.org/2000/svg" xmlns:xlink="http://www.w3.org/1999/xlink" version="1.1" x="0px" y="0px" viewBox="0 0 100 100" enable-background="new 0 0 100 100" xml:space="preserve"><path d="M29.108,48.825c-6.943,0-12.568,5.631-12.568,12.572c0,6.938,5.625,12.57,12.568,12.57c6.939,0,12.581-5.633,12.581-12.57  C41.689,54.456,36.047,48.825,29.108,48.825z"></path><path d="M95.896,36.547c6.213-3.593,0.612-13.218-5.621-9.61c-1.499,0.869-14.141,8.184-18.14,10.5  c-1.259,0.721-2.515,1.761-3.034,2.758c-1.015,1.96-0.93,4.225,0.715,6.687c1.059,1.6,2.118,3.2,3.185,4.798  c-5.665,0-11.336,0-16.987,0c0,0-0.014,0-0.022,0c0-3.146,0-11.417,0-14.557c0-7.193-11.136-7.193-11.136,0  c0,7.11,0,19.342,0,26.444c0,0.894,0.171,1.692,0.478,2.367c1.376,4.596,5.681,8.034,10.681,8.034c9.029,0,18.062,0,27.105,0  c6.068,0,11.132-5.07,11.132-11.142c0-4.137-3.004-7.771-3.185-8.048c-2.471-3.713-4.938-7.426-7.4-11.149  C85.698,42.45,94.422,37.402,95.896,36.547z"></path><polygon points="19.479,44.958 11.055,27.977 14.402,26.316 22.827,43.297 19.479,44.958 "></polygon><polygon points="13.933,50.443 1.146,42.625 3.095,39.436 15.883,47.253 13.933,50.443 "></polygon><polygon points="30.982,42.709 27.245,42.709 27.245,26.141 30.982,26.141 30.982,42.709 "></polygon></svg>