<svg height='100px' width='100px'  fill="#FFFFFF" xmlns="http://www.w3.org/2000/svg" xmlns:xlink="http://www.w3.org/1999/xlink" version="1.1" x="0px" y="0px" viewBox="0 0 60 60" style="enable-background:new 0 0 60 60;" xml:space="preserve"><path d="M17.9032593,51.630127c0.4200439,0.0499878,0.8300171,0.0700073,1.25,0.0700073  c2.6500244,0,5.2600098-0.8900146,7.4800415-2.539978c-1.3400269-2.3500366-2.1199951-5.0900269-2.1199951-7.9700317  c0-4.3299561,1.8699951-7.7299805,5.2000122-9.8399658c-0.6500244-0.6300049-1.4000244-1.1900024-2.2600098-1.6700439  c-1.5023193-0.8470459-3.3236694-1.4523315-5.4033203-1.8140869c-0.0155029-0.0192871-0.0209351-0.043335-0.0380859-0.0617065  c-0.0830078-0.0888672-1.9970703-2.2202148,0.1630859-6.3354492c1.5107422-2.8790283,7.166626-5.9795532,12.1193848-8.571106  c-0.8408203,1.2961426-1.420166,2.6861572-1.7805176,4.2175903c-0.0056152,0.0238647-0.0057983,0.0479736-0.0112305,0.0718384  c-0.0010376,0.0068359-0.0021362,0.0134277-0.0031128,0.0202637c-1.1989746,5.3484497,2.7265015,11.0488281,4.9562988,13.7573242  c-6.887085,0.6257324-10.9425049,4.3405151-10.9425049,10.2253418c0,7.4899902,5.9799805,13.8099976,13.0700073,13.8099976  c7.0899658,0,13.0799561-6.3200073,13.0799561-13.8099976c0-6.3492432-4.7174072-10.1755981-12.6330566-10.3165283  c-1.0529785-1.1404419-5.026062-5.7261963-5.6585693-10.3840332c1.1826782,1.3331909,2.6431274,2.303894,4.3716431,2.890564  c1.4099731,0.4800415,2.8800049,0.6700439,4.3300171,0.6700439c5.0999756,0,9.8399658-2.3300171,10.0899658-2.460022  c0.3200073-0.1600342,0.5300293-0.4700317,0.5500488-0.8300171c0.0199585-0.3599854-0.1500244-0.7000122-0.4400024-0.8900146  c-9.2341919-6.147522-14.9735718-5.8223267-17.9615479-4.7386475c1.2147217-2.4888916,3.7876587-5.1965942,9.9608765-8.2338867  c0.4960938-0.2441406,0.6992188-0.8432617,0.4560547-1.3388672c-0.2441406-0.4956055-0.8447266-0.699707-1.3388672-0.4560547  c-1.6192627,0.796814-3.0384521,1.5894775-4.2949219,2.394043c-1.569519,0.9385376-3.5140991,1.9530029-5.5576172,3.0180664  c-5.7236328,2.9819336-12.2109375,6.3618164-14.1337891,10.0244141c-1.684082,3.2078857-1.3719482,5.5819702-0.803772,7.0272827  c-7.6539307-0.5458984-12.5805054,2.7512207-13.2364502,8.9636841C5.5733032,43.9701538,10.8632813,50.8901367,17.9032593,51.630127  z"></path></svg>