<?xml version="1.0" encoding="UTF-8"?>
<svg width="1200pt" height="1200pt" version="1.1" viewBox="0 0 1200 1200" xmlns="http://www.w3.org/2000/svg">
 <g>
  <path d="m247.4 1078.4c-64.453-40.922-47.172-123.45 16.754-184.55 40.188-38.41 62.809-81.312 126.18-122.75-193.15 79.328-181.98 199.41-318.96 143.62 0 32.293 11.797 40.57 37.078 47.594-37.57 63.469-23.316 137.22-23.281 138.25 43.828-48.555 92.766 7.0547 162.23-22.18z"/>
  <path d="m707.55 486.14c1.0938-1.1992 159.23-115.14 158.39-234.14l-212.02 118.22c1.6562-44.242-8.7617-88.055-19.199-131.23l-127.3 157.6c-3.5625-1.1172-7.1523-2.1484-10.766-3.1211-23.375-6.2656-47.543-9.6016-71.734-11.09-27.395 77.027-68.988 163.23-127.57 202.3 1.6914-14.723 2.2578-59.41 3.9609-74.16-29.867 30.395-47.543 78.984-75.109 111.73 0.058594-15.805-8.7461-47.195-7.9336-63.023-25.211 26.762-36.852 72.504-64.066 97.262-0.94922-13.512-5.207-32.699-5.8555-46.234-25.992 12.359-49.934 53.52-73.738 69.574-13.727 96.91 1.7891 134.57 108 176.86-9.6836-20.723-23.867-37.105-25.609-68.676 0.3125-0.12109 0.73047-0.32422 1.0664-0.46875 9.1562 12.602 25.609 27.191 54.938 35.461 0 0-8.0742-42.973-9.0234-66.973 0.007812-0.011719 0.007812-0.011719 0.019531-0.023438 14.375 20.387 33 42.996 63 54.996-3.4062-26.82-14.797-46.176-10.477-72.613 21.91 28.754 46.152 43.691 75.719 49.055-23.629-41.387-32.102-62.438-28.848-101.94 21.863-25.969 64.379-45.133 92.676-63.91 54.828 9.4688 81.047 12.73 200.33-6.3242-15.996 47.016-37.98 102.84-67.078 146.29-11.039-2.4102-22.02-5.0898-33.012-8.0391-8.7109-2.3398-17.426-4.8477-26.184-7.5117 15.371 15.48 33.516 27.973 53.027 38.578-15.492 18.84-34.246 34.141-54 48.602-0.85156-0.21484-1.7031-0.43359-2.5547-0.66016-21.742-5.832-41.629-16.441-60.445-30.551 6.8516 21.371 24 39.336 44.16 54.168-20.82 11.125-41.449 22.055-62.52 32.305-18.863-5.2812-37.043-12.098-55.633-20.281 2.7109 15.59 8.6406 29.316 16.766 41.914-10.523 6.5625-21.445 12.312-32.629 17.594-0.74219-0.19141-1.4883-0.38281-2.2188-0.58984-11.785-3.168-23.41-7.0938-34.477-11.34 9.2383 31.727 47.387 52.477 79.211 61.02 7.4297 1.9922 14.832 3.5508 22.234 4.7148 0.26562-1.2969 1.4023-2.6172 0.91016-3.8398-25.98-63.973 83.902-80.004 129.85-99.133 11.352-93.949 60.625-94.094 104.76-125.17 1.0078-4.5586 2.0898-9 3.2539-13.344 11.941-44.293 32.988-77.137 73.105-107.87l174.11 13.848c-38.043-65.973-69.074-101.37-159.48-159.82zm-221.69 19.199-80.746 39.254c15.516-14.473 47.797-51.098 61.754-66.805l63.227-26.734z"/>
  <path d="m669.89 1089c41.543-11.699 111.06-52.668 175.69-82.234 68.41-163.77 30.793-300.21 21.422-321.77l-166.13-12.996c-9.3242 10.57-9.3242 10.57-19.402 30.996 28.727 5.8789 141.53 6 116.52 136.18 9.793-3.6953 19.598-7.3789 29.352-11.172-4.3555 96-51.828 121.96-86.531 153.49 9.0703 0.52734 39.742-0.22656 48.852 0-25.25 26.363-89.074 87.168-119.77 107.51z"/>
  <path d="m811 451.05c28.98-2.9023 141.36-26.762 329 40.621-46.645-72.289-147.04-156.13-220-200.68-31.164 54.324-60.625 121.46-109.01 160.05z"/>
  <path d="m691.55 306.84c137.63-89.113 229.34-128.59 383.45-131.83-101.18-45.758-310.39-53.605-409.51 15.395 13.02 42.109 20.195 61.98 26.062 116.44z"/>
  <path d="m530.1 329c67.523-102.3 90.434-155 157.09-246.78-107.27 37.633-187.25 144.84-243.2 246.78z"/>
  <path d="m858 1134.4c102.46-54.742 174.59-113.66 244-206.45 0.011718-12.156-6.0703-47.16-5.9297-71.797 14.953 2.2188 29.832 4.7773 44.711 7.4648-10.93-83.734-68.336-185.21-101.78-263.66 18.66 0.5625 74.363 21.672 92.797 23.543-20.207-36.684-40.598-73.246-63.023-108.46-58.535-16.738-121.3-23.41-183.13-23.41-32.496 0-64.727 1.8477-95.953 5.0391 77.762 44.281 142.32 144.28 157.32 290.28 11.242 109.51-15 264-89.004 347.45z"/>
 </g>
</svg>
