<svg height='100px' width='100px'  fill="#FFFFFF" xmlns="http://www.w3.org/2000/svg" viewBox="0 0 36 36" x="0px" y="0px"><title>Монтажная область 59</title><path d="M6.44579,22.86035C7.06036,23.60938,7.4143,24,8.1491,24s1.08874-.39062,1.70332-1.13965A4.01138,4.01138,0,0,1,13.06958,21a4.01483,4.01483,0,0,1,3.21812,1.86035C16.90228,23.60938,17.25621,24,17.991,24s1.0897-.39062,1.70428-1.13965A4.01482,4.01482,0,0,1,22.91341,21a4.01668,4.01668,0,0,1,3.221,1.85938c.6165.749.9714,1.14062,1.70909,1.14062s1.09258-.3916,1.70908-1.14062c.13561-.16523.28535-.34351.44741-.52161L20.60093,3.66a2.86664,2.86664,0,0,0-5.2006,0L6,22.34027C6.16134,22.51788,6.3106,22.69562,6.44579,22.86035Z"></path><path d="M31.65131,25.23v-.02L31,24c-.6463.77075-1.36908,2-3.00586,2a4.08864,4.08864,0,0,1-3.27051-1.85937C24.09766,23.3916,23.7373,23,22.98828,23c-.74609,0-1.10644.39063-1.73047,1.13965A4.08661,4.08661,0,0,1,17.99023,26a4.0865,4.0865,0,0,1-3.2666-1.85937c-.624-.75-.98437-1.14063-1.73047-1.14063s-1.10546.39063-1.72949,1.13965A4.08312,4.08312,0,0,1,7.99707,26C6.36475,26,5.64581,24.76947,5,24l-.65131,1.21v.01L2.10852,29.61a1.00115,1.00115,0,0,0,.89008,1.45c.75006,0,1.1101.38,1.74017,1.12A4.08875,4.08875,0,0,0,7.99908,34a4.06986,4.06986,0,0,0,3.26032-1.83c.62006-.73.98-1.11,1.7301-1.11s1.11011.38,1.74018,1.12A4.08885,4.08885,0,0,0,17.99,34a4.08877,4.08877,0,0,0,3.26032-1.82c.63006-.74.99011-1.12,1.74017-1.12s1.11.38,1.74011,1.12a3.83919,3.83919,0,0,0,6.53064,0c.63007-.74.99011-1.12,1.74017-1.12a1.00115,1.00115,0,0,0,.89008-1.45Z"></path></svg>