<svg xmlns:dc="http://purl.org/dc/elements/1.1/" xmlns:cc="http://creativecommons.org/ns#" xmlns:rdf="http://www.w3.org/1999/02/22-rdf-syntax-ns#" xmlns:svg="http://www.w3.org/2000/svg" xmlns="http://www.w3.org/2000/svg" xmlns:sodipodi="http://sodipodi.sourceforge.net/DTD/sodipodi-0.dtd" xmlns:inkscape="http://www.inkscape.org/namespaces/inkscape" version="1.1" x="0px" y="0px" viewBox="0 0 100 100"><g transform="translate(0,-952.36218)"><path d="m 92.390613,958.16015 a 2.0001999,2.0001999 0 0 1 1.8125,1.99998 l 0,84.40627 a 2.0001999,2.0001999 0 0 1 -2,2 l -84.4062423,0 a 2.0001999,2.0001999 0 0 1 -2.000002,-2 l 0,-84.40627 a 2.0001999,2.0001999 0 0 1 2.000002,-1.99998 l 84.4062423,0 a 2.0001999,2.0001999 0 0 1 0.1875,0 z m -2.1875,4 -52.531246,0 0,53.75005 52.531246,0 0,-53.75005 z m -63.562493,0 -3.062501,0 0,53.75005 3.062501,0 0,-53.75005 z m -7.062501,0 -9.7812503,0 0,53.75005 9.7812503,0 0,-53.75005 z m 14.093748,57.75005 -3.03125,0 0,3 3.03125,0 0,-3 z m -7.031247,0 -3.062501,0 0,3 3.062501,0 0,-3 z m -7.062501,0 -9.7812503,0 0,3 9.7812503,0 0,-3 z m 70.624994,7 -52.531246,0 0,3.0624 52.531246,0 0,-3.0624 z m -56.531246,0 -3.03125,0 0,3.0624 3.03125,0 0,-3.0624 z m -7.031247,0 -3.062501,0 0,3.0624 3.062501,0 0,-3.0624 z m -7.062501,0 -9.7812503,0 0,3.0624 9.7812503,0 0,-3.0624 z m 70.624994,7.0624 -52.531246,0 0,8.5938 52.531246,0 0,-8.5938 z m -56.531246,0 -3.03125,0 0,8.5938 3.03125,0 0,-8.5938 z m -7.031247,0 -3.062501,0 0,8.5938 3.062501,0 0,-8.5938 z m -7.062501,0 -9.7812503,0 0,8.5938 9.7812503,0 0,-8.5938 z" style="text-indent:0;text-transform:none;direction:ltr;block-progression:tb;baseline-shift:baseline;color:#000000;enable-background:accumulate;" fill="#FFFFFF" fill-opacity="1" fill-rule="evenodd" stroke="none" marker="none" visibility="visible" display="inline" overflow="visible"></path></g></svg>