<?xml version="1.0" encoding="UTF-8"?>
<svg width="1200pt" height="1200pt" version="1.1" viewBox="0 0 1200 1200" xmlns="http://www.w3.org/2000/svg">
 <g>
  <path d="m1050 187.5h-900c-29.836 0-58.453 11.852-79.551 32.949-21.098 21.098-32.949 49.715-32.949 79.551v600c0 29.836 11.852 58.453 32.949 79.551 21.098 21.098 49.715 32.949 79.551 32.949h900c29.836 0 58.453-11.852 79.551-32.949 21.098-21.098 32.949-49.715 32.949-79.551v-600c0-29.836-11.852-58.453-32.949-79.551-21.098-21.098-49.715-32.949-79.551-32.949zm-900 75h900c9.9453 0 19.484 3.9492 26.516 10.984 7.0352 7.0312 10.984 16.57 10.984 26.516v474.75l-160.88-163.5c-6.4258-6.4961-14.996-10.422-24.113-11.043-9.1133-0.62109-18.141 2.1055-25.387 7.668l-219.38 168.38-214.5-310.12c-6.5195-9.4883-17.035-15.457-28.527-16.191-11.488-0.73047-22.676 3.8555-30.348 12.441l-271.88 303v-465.38c0-9.9453 3.9492-19.484 10.984-26.516 7.0312-7.0352 16.57-10.984 26.516-10.984zm-37.5 637.5v-22.125l296.25-330 269.62 389.62h-528.38c-9.9453 0-19.484-3.9492-26.516-10.984-7.0352-7.0312-10.984-16.57-10.984-26.516zm937.5 37.5h-280.5l-69-99.75 195.75-150 191.25 193.88v18.375c0 9.9453-3.9492 19.484-10.984 26.516-7.0312 7.0352-16.57 10.984-26.516 10.984z"/>
  <path d="m825 450c0 41.422-33.578 75-75 75s-75-33.578-75-75 33.578-75 75-75 75 33.578 75 75"/>
 </g>
</svg>
