<svg height='100px' width='100px'  fill="#FFFFFF" xmlns="http://www.w3.org/2000/svg" xmlns:xlink="http://www.w3.org/1999/xlink" version="1.1" x="0px" y="0px" viewBox="0 0 216.856 303.285" style="enable-background:new 0 0 216.856 303.285;" xml:space="preserve"><g><path d="M40.714,89.922C48.15,66.543,55.31,43.629,53.832,34.137C52.86,27.896,70.91,26.648,66.93,19.425   c-4.652-8.44,8.624,0.525,6.854-8.309C72.8,6.216,66.032,1.555,57.435,0.121c-8.597-1.434-2.638,10.18-5.681,19.706   c-2.13,6.668-21.911,18.196-4.805,20.511c-1.098,13.297-9.777,27.32-11.828,40.312c-0.386,2.063-0.864,4.262-1.409,6.55   c-1.566,0.184-3.095,0.826-4.365,1.951c-3.309,2.926-3.618,7.983-0.691,11.292c0.375,0.424,0.754,0.825,1.131,1.239   c-3.49,11.789-7.645,23.992-10.434,32.718c-8.216,25.721-24.388,64.295-17.821,66.742c6.566,2.447,6.857-24.754,14.279-38.129   c8.031-15.281,12.168-31.43,17.005-47.757c0.773-2.61,1.588-5.284,2.426-7.994c1.042,0.99,2.086,1.955,3.135,2.873l3.444-19.003   C41.451,90.73,41.081,90.337,40.714,89.922z"></path><path d="M214.848,100.442c2.928-3.311,2.618-8.365-0.69-11.291c-3.31-2.928-8.365-2.62-11.291,0.69   c-0.393,0.443-0.787,0.862-1.181,1.291l3.444,18.999C208.41,107.258,211.665,104.043,214.848,100.442z"></path><path d="M125.739,48.86c-6.124-6.58-15.788-14.54-28.89-18.051c-23.709-6.355-24.75,3.25-25.75,6   c13.834-0.795,20.076,12.162,22.406,23.244c5.624-2.84,11.849-5.384,18.114-7.426C116.401,51.069,121.149,49.817,125.739,48.86z    M92.456,38.736l-1.396,1.627l-0.442-2.098l-1.979-0.826l1.86-1.068l0.174-2.138l1.591,1.438l2.086-0.496l-0.876,1.957l1.115,1.832   L92.456,38.736z M106.227,45.022l-0.216,2.751l-2.052-1.844l-2.683,0.645l1.12-2.523l-1.442-2.352l2.745,0.287l1.791-2.099   l0.576,2.698l2.55,1.055L106.227,45.022z"></path><path d="M97.897,82.175c2.598-11.154,12.401-18.945,23.837-18.945c1.866,0,3.743,0.217,5.576,0.645   c6.555,1.526,11.881,5.569,15.197,10.868c12.433-6.81,19.838-14.458,18.067-19.891c-2.052-6.298-15.822-7.742-33.29-4.28   c-4.792,0.949-9.86,2.266-15.044,3.955c-6.737,2.195-12.949,4.784-18.349,7.549c-13.898,7.119-22.398,15.411-20.516,21.191   c1.668,5.119,11.078,7.026,23.918,5.706C97.18,86.741,97.366,84.459,97.897,82.175z"></path><path d="M126.856,65.821c-12.1-2.816-24.193,4.708-27.012,16.808c-0.479,2.055-0.652,4.109-0.563,6.118   c0.03,0.665,0.088,1.325,0.176,1.979c0.217,1.611,0.607,3.181,1.156,4.687c0.224,0.144,0.473,0.283,0.722,0.428   c0.477,0.278,0.954,0.583,1.26,1.013c0.624,0.875,1.288,1.816,2.063,2.747c0.71,0.853,1.405,1.781,2.236,2.619   c0.604,0.608,0.898,1.626,1.399,2.402l-0.031,0.216c-0.04,0.265-0.074,0.538-0.108,0.81c-0.06,0.478-0.105,0.963-0.094,1.467   c0.009,0.339,0.036,0.659,0.072,0.968c0.08,0.704,0.214,1.335,0.346,1.877c0.459,1.901,1.51,2.866,3.122,2.866l0.133,0.004   c0.098,0.004,0.198,0.006,0.3,0.006c1.227,0,2.222-0.519,2.938-1.52c0.012-0.013,0.03-0.024,0.043-0.037   c0.09-0.093,0.197-0.178,0.312-0.271c0.386-0.317,0.901-0.753,1.308-1.373c0.034-0.052,0.071-0.095,0.103-0.149   c0.128-0.215,0.258-0.441,0.388-0.666c0.377,0.537,0.772,1.023,1.289,1.132c0.094,0.019,0.19,0.011,0.287,0.007   c1.037-0.039,2.226-1.296,3.303-1.296c1.177,0,2.381,1.001,3.482,0.771c0.555-0.116,1.162-0.147,1.761-0.199   c0.037,0.07,0.063,0.138,0.104,0.208c0.014,0.023,0.03,0.042,0.045,0.064c0.016,0.025,0.033,0.047,0.05,0.072   c0.561,0.831,1.399,1.186,2.028,1.41c0.056,0.02,0.113,0.041,0.165,0.059c0.035,0.013,0.071,0.025,0.107,0.035   c0.06,0.172,0.121,0.386,0.164,0.537c0.213,0.736,0.708,2.46,2.497,2.46c2.049,0,3.226-2.624,3.564-4.015   c0.039-0.164,0.093-0.342,0.147-0.531c0.186-0.625,0.409-1.401,0.451-2.271c0.002-0.045,0.01-0.088,0.011-0.134   c0.018-0.758-0.179-1.435-0.356-2.03c-0.012-0.041-0.021-0.077-0.033-0.117c-0.074-0.255-0.142-0.498-0.169-0.684   c-0.027-0.193-0.058-0.402-0.093-0.621c-0.009-0.056-0.021-0.117-0.031-0.173c0.099-0.04,0.195-0.081,0.293-0.122   c0.493-0.205,0.964-0.43,1.311-0.779c0.83-0.836,0.861-2.377,1.571-3.229c0.773-0.93,1.705-1.646,2.328-2.521   c0.744-1.044,1.181-2.279,1.698-3.127c0.573-0.936,0.68-1.922,0.887-2.603c0.047-0.156,0.101-0.295,0.166-0.414   c-0.035,0.007-0.072,0.011-0.105,0.02c0.637-4.701-0.245-9.316-2.304-13.304c-0.307-0.594-0.639-1.175-0.996-1.74   C137.698,70.877,132.837,67.215,126.856,65.821z M134.58,107.08c-0.015,0.608-0.18,1.204-0.339,1.742   c-0.081,0.275-0.16,0.54-0.217,0.773c-0.291,1.203-1.115,2.484-1.617,2.484c-0.428,0-0.515-1.032-0.864-1.875   c-0.077-0.188-0.164-0.369-0.275-0.524c-0.285-0.398-1.118-0.506-1.704-0.827c-0.012-0.006-0.022-0.012-0.033-0.018   c-0.056-0.031-0.103-0.07-0.152-0.106c-0.122-0.088-0.232-0.187-0.307-0.313c-0.367-0.619-0.525-1.414-0.926-2.086   c-0.385-0.646-0.777-1.293-1.195-1.918c-0.434-0.648-0.493-1.566-0.966-2.115c-0.528-0.615-1.391-0.811-1.972-1.2   c-0.669-0.448-1.266-1.454-2.01-1.454c-0.744,0-1.064,1.418-1.733,1.866c-0.581,0.39-1.312,0.524-1.84,1.139   c-0.474,0.55-1.587,0.687-2.021,1.334c-0.419,0.625,0.131,1.878-0.254,2.525c-0.149,0.251-0.291,0.498-0.435,0.746   c-0.055,0.095-0.111,0.192-0.166,0.286c-0.182,0.316-0.36,0.626-0.537,0.924c-0.128,0.216-0.298,0.4-0.478,0.572   c-0.418,0.399-0.907,0.715-1.176,1.09c-0.145,0.202-0.29,0.344-0.436,0.448c-0.468,0.336-0.93,0.251-1.329,0.251   c-0.501,0-0.887-0.133-1.177-1.334c-0.004-0.015-0.007-0.033-0.01-0.048c-0.164-0.681-0.331-1.477-0.354-2.378   c-0.001-0.038,0.003-0.079,0.003-0.118c-0.001-0.228,0.012-0.459,0.034-0.694c0.005-0.053,0.01-0.107,0.016-0.161   c0.052-0.477,0.131-0.966,0.2-1.471c0.109-0.793-0.52-1.834-0.266-2.638c0.244-0.772,0.904-1.506,1.305-2.237   c0.391-0.71,1.135-1.258,1.694-1.881c0.534-0.596,1.118-1.221,1.826-1.695c0.652-0.438,1.578-0.392,2.393-0.692   c0.727-0.269,1.396-0.868,2.264-1.005c0.763-0.119,1.597,0.396,2.476,0.396c0.879,0,1.596,0.247,2.358,0.366   c0.866,0.136,1.786-0.379,2.513-0.111c0.814,0.301,1.365,0.971,2.018,1.408c0.707,0.475,1.909,0.402,2.443,0.997   c0.56,0.624,0.473,1.757,0.862,2.468c0.401,0.73,1.09,1.349,1.335,2.121c0.248,0.786,0.392,1.624,0.5,2.401   c0.003,0.017,0.007,0.036,0.009,0.052c0.002,0.018,0.009,0.035,0.011,0.052c0.086,0.558,0.289,1.121,0.419,1.66   C134.536,106.557,134.587,106.825,134.58,107.08z"></path><path d="M100.898,116.851c-37.076-5.4-57.047-25.711-57.047-25.711l-0.326,1.802l-3.387,18.689l-8.852,48.843   c0,0,40.063-1.334,50.063-2c10-0.666-8.667,108.667-32.333,136.167c0,0,18.771-2.624,39.19-4.537   c-0.045,0.683-0.02,1.352,0.044,2.011c0.568,5.923,5.344,10.735,11.473,11.142c6.813,0.453,12.704-4.702,13.157-11.516l0.093-1.399   l0.134-2.009c1.763-0.071,3.478-0.124,5.132-0.156l3.515-19.786l3.515,19.786c1.653,0.032,3.369,0.085,5.131,0.156l0.134,2.009   l0.093,1.399c0.453,6.813,6.345,11.969,13.157,11.516c6.129-0.407,10.904-5.219,11.473-11.142c0.063-0.659,0.089-1.329,0.044-2.011   c20.419,1.914,39.191,4.537,39.191,4.537c-23.666-27.5-42.333-136.833-32.333-136.167c10,0.666,50.063,2,50.063,2l-8.852-48.848   l-3.387-18.686l-0.326-1.8c0,0-19.773,20.121-56.508,25.637c0.182-0.608,0.367-1.234,0.517-1.879   c0.02-0.086,0.021-0.167,0.035-0.252c0.15-0.907,0.012-1.759-0.116-2.453c-0.061-0.334-0.152-0.843-0.117-1.006   c0.104-0.485,0.265-0.982,0.434-1.508c0.2-0.615,0.405-1.251,0.54-1.931c0.143-0.7,0.24-1.392,0.336-2.063   c0.071-0.501,0.14-0.991,0.229-1.466c0.061-0.328,0.29-0.749,0.534-1.193c0.342-0.625,0.729-1.334,0.876-2.182   c0.083-0.487,0.285-0.986,0.5-1.516c0.244-0.607,0.499-1.232,0.607-1.925c0.075-0.468,0.193-0.94,0.311-1.397   c0.327-1.297,0.667-2.639-0.088-3.871c-0.263-0.431-0.781-0.963-1.672-1.269c0.399,0.78-0.264,2.203-0.525,3.847   c-0.157,0.992-0.875,2.092-1.104,3.414c-0.185,1.073-1.174,2.104-1.406,3.353c-0.205,1.103-0.316,2.286-0.558,3.497   c-0.224,1.119-0.715,2.223-0.971,3.413c-0.242,1.132,0.476,2.507,0.205,3.685c-0.229,0.993-0.561,1.985-0.835,2.995   c-0.04,0.147-0.088,0.29-0.124,0.437c-0.125,0.506-0.439,0.966-0.773,1.422c-0.077,0.104-0.152,0.209-0.229,0.314   c-0.041,0.055-0.081,0.109-0.12,0.164c-0.3,0.414-0.572,0.835-0.695,1.296c-0.305,1.14-0.929,2.18-1.259,3.315   c-0.332,1.14,0.771,2.711,0.416,3.83c-0.363,1.138-2.222,1.758-2.61,2.859c-0.089,0.253-0.123,0.523-0.136,0.801   c-0.041,0.97,0.245,2.046-0.087,2.884c-0.446,1.126-1.381,2.01-1.856,3.057c-0.507,1.114-1.341,1.981-1.881,2.982   c-0.59,1.091-0.872,2.24-1.501,3.169c-0.708,1.044-1.891,1.461-2.65,2.259c-0.883,0.928-0.921,2.609-1.874,3.141   c-1.082,0.604-2.324,0.637-3.496,0.637c-1.17,0-1.893-0.961-2.974-1.564c-0.953-0.531-2.6-0.245-3.483-1.173   c-0.76-0.797-1.448-1.849-2.157-2.893c-0.63-0.929-1.093-2.064-1.683-3.155c-0.541-1.003-1.33-1.958-1.837-3.073   c-0.477-1.047-1.06-2.113-1.506-3.24c-0.417-1.054,0.571-2.652,0.242-3.782c-0.008-0.025-0.007-0.054-0.016-0.079   c-0.389-1.104-1.863-1.846-2.227-2.985c-0.356-1.121-1.102-2.144-1.434-3.284c-0.33-1.135-0.443-2.344-0.748-3.484   c-0.136-0.507-0.246-1.02-0.356-1.533c-0.01-0.048-0.022-0.096-0.033-0.144c-0.022-0.107-0.049-0.212-0.071-0.319   c-0.104-0.493-0.206-0.985-0.326-1.469c-0.026-0.105-0.068-0.207-0.101-0.311c-0.32-1.041-0.893-2.016-1.132-3.049   c-0.27-1.174,0.921-2.65,0.679-3.78c-0.255-1.19-2.137-2.011-2.36-3.13c-0.243-1.212,1.024-2.666,0.818-3.77   c-0.023-0.121-0.044-0.23-0.066-0.35c-0.21-1.109-0.417-2.157-0.585-3.125c-0.229-1.324-2.037-2.236-2.195-3.23   c-0.244-1.531-0.85-2.94-0.619-3.794c0.021-0.078,0.05-0.151,0.086-0.219c-0.158,0.054-0.321,0.104-0.456,0.171   c-0.069,0.035-0.122,0.077-0.186,0.115c-0.509,0.302-0.849,0.678-1.043,0.999c-0.764,1.257-0.413,2.653-0.073,4.002   c0.119,0.468,0.24,0.951,0.315,1.416c0.173,1.087,0.913,1.85,1.51,2.465c0.237,0.244,0.634,0.653,0.69,0.792   c0.116,0.674,0.252,1.381,0.394,2.123l0.244,1.285c-0.035,0.171-0.175,0.525-0.273,0.768c-0.34,0.854-0.765,1.914-0.521,3.119   c0.235,1.186,1.073,1.965,1.747,2.593c0.188,0.173,0.452,0.421,0.588,0.582c-0.044,0.194-0.156,0.509-0.237,0.733   c-0.281,0.789-0.618,1.758-0.442,2.835c0.013,0.075,0.021,0.149,0.038,0.226C100.377,115.636,100.649,116.276,100.898,116.851z    M161.076,270.117l3.075,1.293l2.809-1.802l-0.278,3.323l2.58,2.113l-3.246,0.764l-1.213,3.107l-1.729-2.852l-3.33-0.193   l2.179-2.525L161.076,270.117z M141.717,241.36l3.317,0.347l2.167-2.537l0.695,3.263l3.082,1.276l-2.888,1.67l-0.262,3.325   l-2.481-2.229l-3.243,0.779l1.355-3.049L141.717,241.36z M150.132,208.377l-0.169,1.411l-0.444,3.714l-3.696-3.604l-5.064,1   l2.286-4.629l-2.517-4.508l5.107,0.744l3.51-3.786l0.136,0.792l0.736,4.296l4.684,2.166L150.132,208.377z M125.315,166.841   l0.015,0.034l4.563,0.973l-3.549,3.031l0.484,4.643l-3.918-2.401l-0.063-0.038l-2.2,0.977l-2.065,0.917l1.091-4.537l-3.12-3.472   l1.636-0.128l3.016-0.237l2.339-4.04L125.315,166.841z M100.94,233.63l3.317,0.347l2.167-2.537l0.695,3.263l3.082,1.276   l-2.888,1.67l-0.262,3.325l-2.48-2.229l-3.243,0.779l1.354-3.049L100.94,233.63z M94.292,194.256l0.293-0.168l0.184-0.105   l2.416-1.388l0.271-3.325l2.475,2.237l3.245-0.77l-1.362,3.044l1.735,2.85l-3.316-0.355l-2.173,2.531l-0.688-3.264l-2.525-1.054   l-0.279-0.117L94.292,194.256z M88.017,125.808l0.271-3.325l2.475,2.237l3.245-0.771l-1.362,3.044l1.735,2.85l-3.316-0.355   l-2.173,2.531l-0.688-3.264l-3.079-1.285L88.017,125.808z M61.185,145.187l-4.021-1.719l-3.693,2.339l0.391-4.354l-3.365-2.79   l4.262-0.974l1.614-4.064l2.244,3.753l4.362,0.279l-2.876,3.293L61.185,145.187z M80.935,266.135l-2.173,2.53l-0.688-3.264   l-3.079-1.285l2.893-1.662l0.271-3.324l2.475,2.236l3.245-0.77l-1.362,3.044l1.735,2.849L80.935,266.135z M169.706,131.838   l-1.713-1.54l-0.767-0.69l-3.243,0.779l1.355-3.049l-1.743-2.844l3.317,0.346l2.167-2.536l0.695,3.263l3.082,1.275l-2.888,1.67   l-0.099,1.254L169.706,131.838z M191.325,138.954l-3.012,3.508l-0.952-4.525l-4.268-1.78l4.009-2.304l0.375-4.608l3.43,3.101   l4.498-1.068l-1.888,4.221l2.405,3.948L191.325,138.954z"></path></g></svg>