<svg height='100px' width='100px'  fill="#1A1A1A" xmlns="http://www.w3.org/2000/svg" xmlns:xlink="http://www.w3.org/1999/xlink" version="1.1" x="0px" y="0px" viewBox="0 0 52 52" enable-background="new 0 0 52 52" xml:space="preserve"><g><path d="M26.0001,2C12.75,2,2,12.75,1.9999,26c0,13.25,10.75,24,24,24C39.25,50,50,39.25,50.0001,26   C50.0001,12.75,39.2501,2,26.0001,2z M25.9999,45.8125C15.0693,45.8125,6.1874,36.9307,6.1874,26   c0-10.9308,8.8819-19.8126,19.8126-19.8126c10.9307,0,19.8125,8.8818,19.8124,19.8126   C45.8125,36.9307,36.9307,45.8125,25.9999,45.8125z"></path><circle cx="42.9551" cy="26.0932" r="1.4824"></circle><circle cx="9.2325" cy="26.0932" r="1.4824"></circle><circle cx="26.0938" cy="9.2319" r="1.4824"></circle><circle cx="26.064" cy="42.9247" r="1.4824"></circle><path d="M23.8163,23.8164L14.7859,37.214l13.3976-9.0304l9.0305-13.3977L23.8163,23.8164z M27.2148,27.2148   c-0.6682,0.6681-1.7614,0.668-2.4296,0c-0.6681-0.6682-0.6681-1.7615,0-2.4296c0.6682-0.6681,1.7614-0.6681,2.4296,0   S27.8829,26.5466,27.2148,27.2148z"></path><polygon points="25.9999,39.203 27.7159,30.9109 24.7018,32.9423  "></polygon><polygon points="21.0891,24.2841 12.7969,26 19.0576,27.2981  "></polygon><polygon points="25.9999,12.7969 24.284,21.0891 27.2981,19.0576  "></polygon><polygon points="30.9109,27.7159 39.2029,26 32.9424,24.7019  "></polygon></g></svg>