<?xml version="1.0" encoding="UTF-8"?>
<svg width="1200pt" height="1200pt" version="1.1" viewBox="0 0 1200 1200" xmlns="http://www.w3.org/2000/svg">
 <g>
  <path d="m649.22 317.58c0 27.828-22.562 50.391-50.391 50.391s-50.391-22.562-50.391-50.391 22.562-50.391 50.391-50.391 50.391 22.562 50.391 50.391"/>
  <path d="m997.73 202.27c-106.17-106.17-247.5-164.77-397.73-164.77s-291.56 58.594-397.73 164.77-164.77 247.5-164.77 397.73 58.594 291.56 164.77 397.73 247.5 164.77 397.73 164.77 291.56-58.594 397.73-164.77 164.77-247.5 164.77-397.73-58.594-291.56-164.77-397.73zm-397.73 885.23c-268.83 0-487.5-218.67-487.5-487.5s218.67-487.5 487.5-487.5 487.5 218.67 487.5 487.5-218.67 487.5-487.5 487.5z"/>
  <path d="m600 412.5c-20.625 0-37.5 16.875-37.5 37.5v487.5c0 20.625 16.875 37.5 37.5 37.5s37.5-16.875 37.5-37.5v-487.5c0-20.625-16.875-37.5-37.5-37.5z"/>
 </g>
</svg>
