<?xml version="1.0" encoding="UTF-8"?>
<svg width="1200pt" height="1200pt" version="1.1" viewBox="0 0 1200 1200" xmlns="http://www.w3.org/2000/svg">
 <g>
  <path d="m337.2 606 222 222c21.602 21.602 57.602 21.602 80.398 0l224.4-220.8c10.801-10.801 16.801-25.199 16.801-40.801 0-15.602-6-28.801-16.801-39.602s-25.199-16.801-39.602-16.801c-15.602 0-30 6-40.801 16.801l-123.6 121.2v-571.2c0-33.602-26.398-60-60-60s-60 26.398-60 60v572.4l-122.4-122.4c-21.602-22.801-57.602-22.801-80.402 0-10.801 10.801-16.801 25.199-16.801 39.602 0 14.398 6 28.797 16.801 39.598z"/>
  <path d="m1064.4 844.8v229.2h-928.8v-229.2h-114v283.2c0 30 25.199 55.199 57.602 55.199h1044c31.199 0 57.602-24 57.602-55.199l-0.003907-283.2z"/>
 </g>
</svg>
