<?xml version="1.0" encoding="UTF-8"?>
<svg width="1200pt" height="1200pt" version="1.1" viewBox="0 0 1200 1200" xmlns="http://www.w3.org/2000/svg">
 <g>
  <path d="m362.81 537.19h665.62c17.812 0 32.812-15 32.812-32.812s-15-32.812-32.812-32.812h-665.62c-17.812 0-32.812 15-32.812 32.812s15 32.812 32.812 32.812z"/>
  <path d="m192.19 558.75c29.062 0 52.5-23.438 52.5-52.5s-23.438-52.5-52.5-52.5-52.5 23.438-52.5 52.5 23.438 52.5 52.5 52.5z"/>
  <path d="m362.81 349.69h665.62c17.812 0 32.812-15 32.812-32.812s-15-32.812-32.812-32.812h-665.62c-17.812 0-32.812 15-32.812 32.812s15 32.812 32.812 32.812z"/>
  <path d="m192.19 371.25c29.062 0 52.5-23.438 52.5-52.5s-23.438-52.5-52.5-52.5-52.5 23.438-52.5 52.5 23.438 52.5 52.5 52.5z"/>
  <path d="m362.81 724.69h665.62c17.812 0 32.812-15 32.812-32.812s-15-32.812-32.812-32.812h-665.62c-17.812 0-32.812 15-32.812 32.812s15 32.812 32.812 32.812z"/>
  <path d="m192.19 746.25c29.062 0 52.5-23.438 52.5-52.5s-23.438-52.5-52.5-52.5-52.5 23.438-52.5 52.5 23.438 52.5 52.5 52.5z"/>
  <path d="m362.81 912.19h665.62c17.812 0 32.812-15 32.812-32.812s-15-32.812-32.812-32.812h-665.62c-17.812 0-32.812 15-32.812 32.812s15 32.812 32.812 32.812z"/>
  <path d="m192.19 933.75c29.062 0 52.5-23.438 52.5-52.5s-23.438-52.5-52.5-52.5-52.5 23.438-52.5 52.5 23.438 52.5 52.5 52.5z"/>
 </g>
</svg>
