<?xml version="1.0" encoding="UTF-8"?>
<svg width="1200pt" height="1200pt" version="1.1" viewBox="0 0 1200 1200" xmlns="http://www.w3.org/2000/svg">
 <g>
  <path d="m649.2 48 198-18c21.602-2.3984 38.398 21.602 27.602 40.801l-27.602 55.199c171.6 90 288 268.8 288 474 0 241.2-159.6 445.2-379.2 512.4-27.602 8.3984-56.398-13.199-56.398-42 0-19.199 13.199-36 31.199-42 183.6-56.398 316.8-226.8 316.8-428.4 0-171.6-97.199-321.6-238.8-396l-28.801 56.398c-9.6016 20.398-38.398 20.398-49.199 2.3984l-103.2-171.6c-10.801-18 1.1992-40.801 21.598-43.199z"/>
  <path d="m64.801 600c0-241.2 159.6-445.2 379.2-512.4 27.602-8.3984 56.398 13.199 56.398 42 0 19.199-13.199 36-31.199 42-183.6 56.398-316.8 226.8-316.8 428.4 0 171.6 97.199 321.6 238.8 396l28.801-56.398c9.6016-20.398 38.398-20.398 49.199-2.3984l103.2 170.4c10.801 18-1.1992 40.801-21.602 43.199l-198 18c-21.602 2.3984-38.398-21.602-27.602-40.801l27.602-55.199c-171.6-88.801-288-267.6-288-472.8z"/>
 </g>
</svg>
