<?xml version="1.0" encoding="UTF-8"?>
<svg width="1200pt" height="1200pt" version="1.1" viewBox="0 0 1200 1200" xmlns="http://www.w3.org/2000/svg">
 <g>
  <path d="m1096.5 703.5c-23.715-23.656-52.414-41.723-84-52.875v-388.12c0-29.836-11.852-58.453-32.949-79.551-21.098-21.098-49.715-32.949-79.551-32.949h-750c-29.836 0-58.453 11.852-79.551 32.949-21.098 21.098-32.949 49.715-32.949 79.551v525c0.074219 15.918 3.5234 31.641 10.125 46.125 8.8711 19.738 23.25 36.5 41.406 48.27 18.16 11.773 39.328 18.059 60.969 18.105h565.88c7.8008 46.801 30.195 89.938 63.98 123.24 33.789 33.309 77.242 55.086 124.15 62.215 46.906 7.1289 94.867-0.75391 137.02-22.516 42.16-21.766 76.359-56.301 97.711-98.668 21.355-42.371 28.766-90.402 21.18-137.24-7.5859-46.836-29.781-90.074-63.418-123.54zm-288 234c-21.281-38.262-24.785-83.906-9.5938-124.97 15.195-41.059 47.566-73.43 88.625-88.625 41.062-15.191 86.707-11.688 124.97 9.5938zm-115.5-112.5-93-116.62 112.5-96.375 86.25 75c-7.0898 5.4727-13.852 11.355-20.25 17.625-32.766 32.723-54.637 74.762-62.625 120.38zm-543-600h750c9.9453 0 19.484 3.9492 26.516 10.984 7.0352 7.0312 10.984 16.57 10.984 26.516v375c-23.027 0.003906-45.922 3.5469-67.875 10.5l-132.75-112.5c-6.793-5.8086-15.438-9.0039-24.375-9.0039s-17.582 3.1953-24.375 9.0039l-135.38 115.88-150-187.5c-6.8125-8.4141-16.93-13.473-27.75-13.875-11.031-0.20312-21.594 4.457-28.875 12.75l-233.62 264.38v-464.62c0-9.9453 3.9492-19.484 10.984-26.516 7.0312-7.0352 16.57-10.984 26.516-10.984zm-18.75 594 243.75-273.38 225 279.38h-450c-6.6719-0.29297-13.145-2.3672-18.75-6zm912.38 150c-23.855 22.688-54.367 37.121-87.039 41.172-32.676 4.0508-65.785-2.4961-94.461-18.672l204.38-204c16.832 28.578 23.715 61.93 19.578 94.84-4.1406 32.906-19.07 63.516-42.453 87.035z"/>
  <path d="m675 375c0 41.422-33.578 75-75 75s-75-33.578-75-75 33.578-75 75-75 75 33.578 75 75"/>
 </g>
</svg>
