<?xml version="1.0" encoding="UTF-8"?>
<svg width="1200pt" height="1200pt" version="1.1" viewBox="0 0 1200 1200" xmlns="http://www.w3.org/2000/svg">
 <path d="m926.4 795.6c-48 0-91.199 16.801-124.8 44.398l-336-201.6c2.3984-13.199 3.6016-25.199 3.6016-39.602 0-14.398-1.1992-26.398-3.6016-39.602l336-201.6c33.602 27.602 78 44.398 124.8 44.398 108 0 195.6-87.602 195.6-195.6 0-107.99-87.602-194.39-195.6-194.39s-195.6 87.602-195.6 195.6c0 13.199 1.1992 26.398 3.6016 39.602l-336 201.6c-33.602-27.602-78-44.398-124.8-44.398-108 0-195.6 87.602-195.6 195.6s87.602 195.6 195.6 195.6c48 0 91.199-16.801 124.8-44.398l336 201.6c-2.3984 13.199-3.6016 25.199-3.6016 39.602 0 108 87.602 195.6 195.6 195.6s195.6-87.602 195.6-195.6c-0.003906-108.02-87.605-196.81-195.61-196.81zm0-685.2c54 0 98.398 44.398 98.398 98.398s-44.398 98.398-98.398 98.398c-54 0.003907-98.398-44.395-98.398-98.395 1.1992-55.199 44.398-98.402 98.398-98.402zm-652.8 588c-54 0-98.398-44.398-98.398-98.398s44.398-98.398 98.398-98.398 98.398 44.398 98.398 98.398c-1.1992 54-44.398 98.398-98.398 98.398zm652.8 391.2c-54 0-98.398-44.398-98.398-98.398s44.398-98.398 98.398-98.398 98.398 44.398 98.398 98.398c0.003906 55.195-44.398 98.398-98.398 98.398z"/>
</svg>
