<?xml version="1.0" encoding="UTF-8"?>
<svg width="1200pt" height="1200pt" version="1.1" viewBox="0 0 1200 1200" xmlns="http://www.w3.org/2000/svg">
 <path d="m894 814.8c-43.199 0-81.602 16.801-111.6 43.199l-324-178.8c9.6016-21.602 15.602-44.398 15.602-68.398 0-25.199-6-48-15.602-68.398l337.2-188.4c27.602 20.398 61.199 32.398 98.398 32.398 92.398 0 166.8-74.398 166.8-166.8 0.003906-92.402-74.398-166.8-166.8-166.8s-166.8 74.398-166.8 166.8c0 33.602 9.6016 63.602 26.398 90l-330 181.2c-30-30-72-48-117.6-48-92.398 0-166.8 74.398-166.8 166.8 0 92.398 74.398 166.8 166.8 166.8 45.602 0 87.602-18 117.6-48l321.6 177.6c-12 22.801-19.199 49.199-19.199 76.801 0 92.398 74.398 166.8 166.8 166.8 92.398 0 166.8-74.398 166.8-166.8 1.1953-93.605-74.406-168-165.61-168z"/>
</svg>
